HIERARCHY
ROOT Hips
{
	OFFSET 0.000000 0.000000 0.000000
	CHANNELS 6 Xposition Yposition Zposition Yrotation Xrotation Zrotation
	JOINT Chest
	{
		OFFSET 0.000000 -0.009281 11.569106
		CHANNELS 3 Yrotation Xrotation Zrotation
		JOINT Chest2
		{
			OFFSET -0.000000 0.016865 9.269641
			CHANNELS 3 Yrotation Xrotation Zrotation
			JOINT Chest3
			{
				OFFSET -0.000000 0.000001 8.374491
				CHANNELS 3 Yrotation Xrotation Zrotation
				JOINT Chest4
				{
					OFFSET -0.000000 0.000001 8.374493
					CHANNELS 3 Yrotation Xrotation Zrotation
					JOINT Neck
					{
						OFFSET -0.000000 0.000002 12.152554
						CHANNELS 3 Yrotation Xrotation Zrotation
						JOINT Head
						{
							OFFSET -0.000000 0.040101 7.802319
							CHANNELS 3 Yrotation Xrotation Zrotation
							End Site
							{
								OFFSET -0.000000 0.020947 14.853096
							}
						}
					}
					JOINT RightCollar
					{
						OFFSET 2.894404 0.000001 6.791374
						CHANNELS 3 Yrotation Xrotation Zrotation
						JOINT RightShoulder
						{
							OFFSET 13.574684 0.000001 0.000000
							CHANNELS 3 Yrotation Xrotation Zrotation
							JOINT RightElbow
							{
								OFFSET 23.923903 0.000002 0.000000
								CHANNELS 3 Yrotation Xrotation Zrotation
								JOINT RightWrist
								{
									OFFSET 19.846718 0.012767 0.000000
									CHANNELS 3 Yrotation Xrotation Zrotation
									End Site
									{
										OFFSET 14.973145 0.000001 0.000000
									}
								}
							}
						}
					}
					JOINT LeftCollar
					{
						OFFSET -2.894404 0.000001 6.791374
						CHANNELS 3 Yrotation Xrotation Zrotation
						JOINT LeftShoulder
						{
							OFFSET -13.574684 -0.000001 0.000000
							CHANNELS 3 Yrotation Xrotation Zrotation
							JOINT LeftElbow
							{
								OFFSET -23.923903 -0.000002 0.000000
								CHANNELS 3 Yrotation Xrotation Zrotation
								JOINT LeftWrist
								{
									OFFSET -19.846718 0.012763 0.000000
									CHANNELS 3 Yrotation Xrotation Zrotation
									End Site
									{
										OFFSET -14.973145 -0.000001 0.000000
									}
								}
							}
						}
					}
				}
			}
		}
	}
	JOINT RightHip
	{
		OFFSET 9.469263 0.004643 0.045487
		CHANNELS 3 Yrotation Xrotation Zrotation
		JOINT RightKnee
		{
			OFFSET 0.000000 0.002661 -40.478676
			CHANNELS 3 Yrotation Xrotation Zrotation
			JOINT RightAnkle
			{
				OFFSET 0.000000 0.049106 -35.224068
				CHANNELS 3 Yrotation Xrotation Zrotation
				JOINT RightToe
				{
					OFFSET -0.000001 12.539529 -6.151390
					CHANNELS 3 Yrotation Xrotation Zrotation
					End Site
					{
						OFFSET -0.000001 5.044994 -1.291870
					}
				}
			}
		}
	}
	JOINT LeftHip
	{
		OFFSET -9.469263 0.004641 0.045487
		CHANNELS 3 Yrotation Xrotation Zrotation
		JOINT LeftKnee
		{
			OFFSET 0.000000 0.002661 -40.478676
			CHANNELS 3 Yrotation Xrotation Zrotation
			JOINT LeftAnkle
			{
				OFFSET 0.000000 0.049106 -35.224068
				CHANNELS 3 Yrotation Xrotation Zrotation
				JOINT LeftToe
				{
					OFFSET -0.000001 12.539529 -6.151390
					CHANNELS 3 Yrotation Xrotation Zrotation
					End Site
					{
						OFFSET -0.000001 5.044994 -1.291870
					}
				}
			}
		}
	}
}
MOTION
Frames: 12
Frame Time: 0.016667
-63.980503 62.358456 83.579330 -2.756606 1.098272 -103.291551 -2.682268 -4.187073 -1.890917 -0.790131 -2.377851 0.009824 -0.790132 -2.377851 0.009823 -0.592475 -1.783405 0.004292 3.661417 -21.771534 -4.806786 5.265415 -4.185125 -7.661760 8.671810 4.930924 -2.172528 47.096302 -18.933474 -11.112445 -1.783497 -58.322138 62.221172 -29.473031 41.212337 66.378183 -6.435911 3.555187 -4.953349 -43.669245 -7.553980 11.033514 -42.911029 -56.211275 -19.383561 17.723489 17.521348 -59.437706 -0.681403 15.568745 -9.234845 9.125309 -24.728196 -17.315534 -2.611421 9.398467 13.837896 0.097701 0.838846 -0.835766 -8.065548 2.800069 -7.867184 -0.643069 -35.230918 14.282501 16.698373 -23.814406 -0.452714 -24.792661 52.185575 -8.379066 
-63.869957 62.190353 83.441864 -2.804277 1.005195 -103.426925 -2.643172 -4.229854 -1.865631 -0.768725 -2.377366 0.010614 -0.768725 -2.377366 0.010614 -0.576420 -1.783041 0.004969 3.677351 -21.825934 -4.794036 5.299849 -4.285565 -7.634960 8.691017 4.905891 -2.192853 47.023189 -18.992663 -11.086061 -1.841708 -58.261698 62.321323 -29.450205 41.250968 66.436547 -6.447782 3.507050 -4.958341 -43.730098 -7.556894 11.030446 -42.779558 -56.188182 -19.450413 17.722816 17.511034 -59.454536 -0.640391 15.814627 -9.242680 9.409773 -25.635384 -17.333314 -2.848457 9.980972 13.764896 0.089409 0.853035 -0.868114 -8.101021 3.158940 -7.944288 -0.549739 -35.961602 14.386456 17.227629 -24.781403 -0.586425 -26.272919 53.254917 -9.335751 
-63.748375 62.004890 83.306305 -2.883728 0.905504 -103.630021 -2.603832 -4.304014 -1.787546 -0.756520 -2.371809 0.018943 -0.756520 -2.371810 0.018939 -0.567236 -1.778884 0.011263 3.702818 -21.886131 -4.785008 5.350669 -4.396473 -7.612331 8.696660 4.900333 -2.227439 46.951994 -19.042994 -11.055817 -1.827880 -58.236529 62.359709 -29.425637 41.241372 66.474324 -6.449798 3.498898 -4.971816 -43.771967 -7.521301 11.049658 -42.703579 -56.210667 -19.481549 17.718286 17.501755 -59.428369 -0.578805 16.013057 -9.116312 9.721885 -26.513498 -17.403447 -3.075986 10.531013 13.790953 0.066270 0.882011 -0.899763 -8.108665 3.468512 -7.945845 -0.443514 -36.670398 14.483290 17.647438 -25.778809 -0.757042 -27.699895 54.361810 -10.341500 
-63.606380 61.813564 83.168625 -2.993190 0.803878 -103.884199 -2.570948 -4.412543 -1.670358 -0.753974 -2.365933 0.034290 -0.753974 -2.365933 0.034285 -0.565267 -1.774494 0.022786 3.736143 -21.937060 -4.777917 5.414765 -4.489955 -7.590897 8.698515 4.934481 -2.276995 46.888012 -19.091545 -11.040292 -1.781073 -58.251671 62.376204 -29.419534 41.209079 66.478279 -6.447521 3.539532 -4.981739 -43.774723 -7.475152 11.088384 -42.727512 -56.239323 -19.454192 17.730491 17.441954 -59.371310 -0.497187 16.156256 -8.960448 10.021557 -27.356325 -17.415198 -3.331962 11.075821 13.794712 0.053703 0.903408 -0.949435 -8.095062 3.714182 -7.870966 -0.352533 -37.349097 14.524553 18.028020 -26.750716 -0.911432 -29.118111 55.449340 -11.432868 
-63.442715 61.619358 83.029289 -3.108296 0.701170 -104.171108 -2.545313 -4.529363 -1.524284 -0.758838 -2.361940 0.051250 -0.758838 -2.361940 0.051248 -0.568849 -1.771524 0.035498 3.771155 -21.969852 -4.769556 5.481582 -4.549760 -7.566456 8.706788 4.972881 -2.317441 46.846878 -19.126992 -11.043072 -1.669114 -58.265018 62.333536 -29.417847 41.162825 66.469755 -6.432372 3.595835 -4.993338 -43.753123 -7.434237 11.132662 -42.773595 -56.258912 -19.429656 17.732566 17.357626 -59.304552 -0.371687 16.248129 -8.815708 10.234174 -28.144380 -17.373192 -3.596477 11.648848 13.775461 0.076236 0.881325 -0.974935 -8.061713 3.907090 -7.775993 -0.320608 -37.974896 14.528466 18.320852 -27.728656 -0.892731 -30.609346 56.480419 -12.674863 
-63.260948 61.435772 82.889107 -3.204311 0.600860 -104.480714 -2.528119 -4.633328 -1.356616 -0.766198 -2.358838 0.071431 -0.766198 -2.358838 0.071432 -0.574292 -1.769223 0.050606 3.800038 -21.983988 -4.759030 5.537234 -4.575183 -7.539553 8.731693 5.021907 -2.345219 46.834088 -19.183881 -11.074005 -1.560475 -58.259055 62.281135 -29.447391 41.151285 66.448588 -6.411739 3.644239 -5.013943 -43.722961 -7.416896 11.162664 -42.772175 -56.275144 -19.455903 17.733490 17.296867 -59.256378 -0.216290 16.346004 -8.639109 10.399879 -28.912587 -17.346363 -3.856677 12.215905 13.734719 0.111045 0.857902 -0.989687 -7.997182 4.067649 -7.677450 -0.372750 -38.555188 14.507173 18.587397 -28.631431 -0.830466 -32.036019 57.449828 -13.932552 
-63.057358 61.258869 82.752113 -3.309119 0.513143 -104.825632 -2.534444 -4.739127 -1.152298 -0.771996 -2.353900 0.094980 -0.771996 -2.353899 0.094985 -0.578550 -1.765549 0.068255 3.816975 -21.986304 -4.751219 5.570103 -4.579034 -7.520705 8.756064 5.018429 -2.400073 46.845020 -19.215740 -11.090262 -1.507692 -58.231249 62.258779 -29.463220 41.165011 66.445303 -6.386661 3.647749 -5.043115 -43.695254 -7.422242 11.152148 -42.722205 -56.275602 -19.524880 17.721581 17.274419 -59.243811 -0.036939 16.420704 -8.392421 10.517356 -29.657586 -17.296494 -4.097802 12.790970 13.563171 0.146008 0.818104 -0.980486 -7.921816 4.179721 -7.538354 -0.451200 -39.079255 14.455260 18.764442 -29.529575 -0.777260 -33.343068 58.428047 -15.158326 
-62.842415 61.082142 82.615654 -3.407286 0.403344 -105.205001 -2.513756 -4.840520 -0.926915 -0.775325 -2.346062 0.116351 -0.775325 -2.346063 0.116349 -0.580967 -1.759700 0.084272 3.813180 -21.984285 -4.736012 5.567434 -4.575466 -7.494242 8.771988 5.004783 -2.449981 46.852362 -19.238674 -11.094847 -1.447346 -58.181095 62.225229 -29.451366 41.165922 66.470301 -6.374736 3.625534 -5.065080 -43.676597 -7.437735 11.125185 -42.646882 -56.268437 -19.609946 17.702790 17.285747 -59.260955 0.170303 16.501501 -8.065557 10.648846 -30.416680 -17.292530 -4.307553 13.338152 13.428713 0.158739 0.805922 -0.953457 -7.792214 4.257275 -7.349535 -0.596968 -39.573921 14.411113 18.929033 -30.291165 -0.678318 -34.595899 59.287278 -16.376794 
-62.618282 60.927773 82.478287 -3.498521 0.349373 -105.573360 -2.532909 -4.914079 -0.716686 -0.781242 -2.334008 0.130588 -0.781242 -2.334009 0.130590 -0.585351 -1.750676 0.094947 3.793592 -21.987697 -4.712479 5.538744 -4.582472 -7.457256 8.793702 4.997150 -2.482638 46.854469 -19.245231 -11.107038 -1.405159 -58.149942 62.194781 -29.436196 41.164065 66.487664 -6.365680 3.599508 -5.070873 -43.662473 -7.471815 11.101384 -42.588046 -56.249961 -19.680744 17.683276 17.298719 -59.296882 0.290281 16.625976 -7.716961 10.838923 -31.229800 -17.420949 -4.441161 13.921325 13.326215 0.133652 0.788721 -0.920175 -7.677000 4.321812 -7.086369 -0.756243 -40.015432 14.380111 19.058087 -30.965537 -0.684656 -35.646552 60.116866 -17.440393 
-62.431290 60.785320 82.337479 -3.435268 0.316660 -106.086143 -2.540475 -4.829096 -0.360862 -0.790768 -2.322355 0.137920 -0.790768 -2.322355 0.137920 -0.592471 -1.741949 0.100418 3.771727 -21.991992 -4.684689 5.507161 -4.591201 -7.413233 8.825319 5.017684 -2.510437 46.856925 -19.244290 -11.120511 -1.330111 -58.118182 62.132838 -29.405115 41.136676 66.511317 -6.345419 3.591021 -5.087494 -43.637341 -7.485060 11.100434 -42.548605 -56.251450 -19.737008 17.672478 17.310057 -59.323799 0.560707 16.870745 -7.165814 11.060326 -31.870397 -17.648130 -4.792727 14.580048 12.799136 0.277178 0.632448 -0.487938 -7.502022 4.551164 -6.586546 -0.846748 -40.431984 14.332807 19.205761 -31.626078 -0.850017 -36.655050 60.970162 -18.480779 
-62.199158 60.641506 82.197914 -3.569078 0.305637 -106.389923 -2.607467 -4.940971 -0.197741 -0.799903 -2.306559 0.143345 -0.799903 -2.306559 0.143342 -0.599305 -1.730111 0.104474 3.750407 -21.999894 -4.659130 5.476061 -4.606600 -7.373144 8.862556 5.048739 -2.554246 46.862266 -19.242852 -11.144670 -1.265235 -58.091695 62.085620 -29.373505 41.105192 66.529266 -6.316838 3.580900 -5.115799 -43.593969 -7.477555 11.105926 -42.564219 -56.274472 -19.741620 17.671883 17.323626 -59.328034 0.535745 16.957939 -6.954633 11.351821 -32.722634 -17.826625 -4.840187 15.206487 12.815714 0.194480 0.599876 -0.486298 -7.419763 4.569039 -6.194845 -0.832651 -40.837008 14.252891 19.268741 -32.287284 -1.151771 -37.493449 61.879731 -19.363361 
-61.967827 60.474174 82.056992 -3.687064 0.244567 -106.666245 -2.617159 -5.043134 -0.051396 -0.802139 -2.286408 0.144165 -0.802139 -2.286409 0.144167 -0.600985 -1.714999 0.105108 3.720870 -22.011304 -4.636156 5.429518 -4.628709 -7.340088 8.886456 5.070493 -2.596605 46.862437 -19.231670 -11.185363 -1.240491 -58.084195 62.085935 -29.347803 41.084339 66.546157 -6.305651 3.561490 -5.136109 -43.540851 -7.487519 11.109519 -42.623444 -56.287326 -19.701870 17.668499 17.341176 -59.320692 0.610264 17.015907 -6.780950 11.554516 -33.521035 -17.911037 -4.878578 15.804626 12.785734 0.121514 0.565604 -0.487255 -7.291670 4.593954 -5.809146 -0.774733 -41.259766 14.133704 19.330914 -32.990165 -1.408240 -38.532799 62.784274 -20.410685 
